<?xml version="1.0" encoding="UTF-8" standalone="no"?><!-- Generator: Gravit.io --><svg xmlns="http://www.w3.org/2000/svg" xmlns:xlink="http://www.w3.org/1999/xlink" style="isolation:isolate" viewBox="0 0 100 100" width="100pt" height="100pt"><defs><clipPath id="_clipPath_BmbH20AoxbZxKMgYwIlsTUtBG13pYiUn"><rect width="100" height="100"/></clipPath></defs><g clip-path="url(#_clipPath_BmbH20AoxbZxKMgYwIlsTUtBG13pYiUn)"><g><path d=" M 99.796 55.208 C 99.796 55.208 99.796 54.996 99.602 54.996 L 99.398 54.794 C 99.398 54.794 99.204 54.794 99.204 54.581 C 99.204 54.581 99 54.581 99 54.379 L 76 42.496 L 76 14.583 C 75.995 14.103 75.829 13.64 75.532 13.273 C 75.388 13.054 75.208 12.864 75 12.71 C 74.813 12.581 74.603 12.493 74.382 12.452 L 50.89 0.219 C 50.33 -0.073 49.67 -0.073 49.102 0.219 L 25.468 12.531 C 25.234 12.573 25.008 12.637 24.796 12.713 C 24.204 12.915 24 13.956 24 14.583 L 24 42.465 L 1.11 54.385 C 1.078 54.402 1.062 54.419 1.04 54.435 C 1.008 54.452 0.976 54.46 0.946 54.477 C 0.882 54.517 0.836 54.573 0.782 54.623 C 0.718 54.671 0.656 54.712 0.61 54.769 C 0.536 54.847 0.467 54.931 0.406 55.021 C 0.366 55.077 0.32 55.135 0.282 55.2 C 0.223 55.302 0.176 55.411 0.142 55.525 L 0.07 55.696 C 0.03 55.875 0 56.062 0 56.25 L 0 85.417 C 0 86.206 0.43 86.931 1.11 87.281 L 25.11 99.781 C 25.132 99.796 25.17 99.787 25.196 99.804 C 25.454 99.919 25.726 100 26 100 C 26.274 100 26.546 99.917 26.804 99.804 C 26.828 99.787 26.868 99.796 26.89 99.781 L 50.04 87.727 L 73.204 99.79 C 73.398 100 73.796 100 74 100 C 74.204 100 74.6 100 74.796 99.787 L 88.602 92.708 L 98.796 87.287 C 99.398 86.873 100 86.246 100 85.417 L 100 55.625 C 99.796 55.421 99.796 55.208 99.796 55.208 Z  M 26 66.423 L 6.468 56.25 L 26 46.077 L 45.532 56.25 L 26 66.423 Z  M 48 28.369 L 48 52.881 L 28 42.465 L 28 17.952 L 48 28.369 Z  M 50 4.41 L 69.476 14.558 L 58.296 20.433 L 50 24.758 L 30.468 14.583 L 50 4.41 Z  M 4 59.619 L 24 70.035 L 24 94.548 L 4 84.131 L 4 59.619 Z  M 72 72.917 L 72 94.579 L 52 84.162 L 52 59.554 L 61.796 64.583 L 72 69.792 L 72 72.917 Z  M 74 66.454 L 54.4 56.25 L 74 46.046 L 93.6 56.25 L 74 66.454 Z  M 38.754 29.461 C 38.74 29.457 38.726 29.454 38.714 29.451 L 33.119 26.888 C 32.499 26.604 31.986 26.811 31.986 27.353 L 31.986 38.258 C 31.986 38.897 32.59 39.696 33.321 40.031 L 41.658 43.85 C 42.389 44.185 42.993 43.94 42.993 43.3 L 42.993 35.153 C 43.002 35.119 43.002 35.08 42.993 35.038 L 42.993 34.958 C 42.996 34.883 42.963 34.794 42.902 34.712 L 39.179 29.744 C 39.117 29.663 39.033 29.595 38.946 29.558 L 38.845 29.511 C 38.816 29.491 38.785 29.474 38.754 29.461 L 38.754 29.461 Z  M 33.119 27.456 L 38.461 29.903 L 38.461 32.27 C 38.463 32.843 38.992 33.549 39.644 33.849 L 42.346 35.087 L 42.346 43.004 C 42.346 43.335 42.04 43.458 41.658 43.283 L 33.321 39.464 C 32.939 39.289 32.633 38.886 32.633 38.555 L 32.633 27.65 C 32.633 27.416 32.847 27.331 33.119 27.456 Z  M 39.108 30.465 L 42.042 34.38 L 39.644 33.282 C 39.502 33.218 39.364 33.106 39.263 32.972 C 39.162 32.837 39.106 32.691 39.108 32.567 L 39.108 30.465 Z  M 34.9 33.945 L 34.9 34.513 L 40.08 36.886 L 40.08 36.318 L 34.9 33.945 Z  M 34.9 35.08 L 34.9 35.648 L 40.08 38.021 L 40.08 37.453 L 34.9 35.08 Z  M 34.9 36.215 L 34.9 36.782 L 40.08 39.155 L 40.08 38.588 L 34.9 36.215 Z  M 34.9 37.35 L 34.9 37.917 L 37.813 39.252 L 37.813 38.685 L 34.9 37.35 Z  M 15.422 83.251 C 15.322 83.195 15.226 83.089 15.178 82.97 C 15.144 82.889 15.138 82.813 15.16 82.759 C 15.182 82.706 15.231 82.678 15.296 82.683 C 15.337 82.688 15.374 82.687 15.415 82.689 C 15.549 82.694 15.717 82.836 15.79 83.004 C 15.862 83.173 15.813 83.305 15.678 83.299 C 15.634 83.295 15.593 83.297 15.549 83.294 C 15.508 83.288 15.463 83.274 15.422 83.251 Z  M 18.698 78.108 L 18.687 78.059 C 17.919 75.173 15.53 72.043 12.707 70.465 C 9.884 68.888 7.496 69.349 6.728 71.373 C 6.724 71.385 6.717 71.395 6.713 71.411 C 6.55 71.856 6.467 72.366 6.468 72.925 C 6.468 76.201 9.265 80.433 12.707 82.356 C 13.126 82.591 13.549 82.788 13.957 82.935 C 14.057 82.97 14.137 82.945 14.166 82.869 C 14.196 82.792 14.17 82.677 14.098 82.568 C 14.095 82.555 14.091 82.543 14.087 82.526 C 14.035 82.381 13.902 82.246 13.779 82.202 C 13.794 82.186 13.809 82.177 13.824 82.16 C 13.898 82.074 13.853 81.89 13.72 81.742 C 13.586 81.596 13.419 81.545 13.342 81.629 C 13.13 81.868 12.904 81.936 12.707 81.826 C 12.188 81.536 11.505 79.84 11.253 77.458 L 12.192 77.982 C 12.344 78.067 12.47 78.021 12.47 77.872 C 12.47 77.724 12.347 77.539 12.192 77.452 L 11.197 76.896 C 11.164 76.461 11.146 76.005 11.146 75.535 C 11.146 75.061 11.164 74.626 11.197 74.224 L 14.206 75.905 C 14.269 76.753 14.275 77.573 14.224 78.358 C 14.213 78.497 14.332 78.687 14.484 78.782 L 14.503 78.793 C 14.647 78.873 14.77 78.836 14.777 78.699 C 14.799 78.34 14.814 77.966 14.814 77.585 C 14.814 77.129 14.796 76.669 14.762 76.216 L 16.309 77.08 C 16.383 77.549 16.424 78.021 16.424 78.484 C 16.424 78.94 16.379 79.361 16.305 79.75 L 15.634 79.375 C 15.482 79.29 15.356 79.336 15.356 79.485 C 15.356 79.633 15.478 79.818 15.634 79.906 L 16.194 80.218 C 16.172 80.294 16.153 80.376 16.127 80.446 C 16.086 80.565 16.172 80.757 16.32 80.879 C 16.469 81.001 16.621 81.005 16.661 80.886 C 16.702 80.775 16.736 80.655 16.769 80.536 L 18.052 81.253 C 17.771 81.835 17.318 82.257 16.713 82.492 C 16.606 82.534 16.606 82.7 16.713 82.863 C 16.821 83.025 16.995 83.123 17.103 83.08 C 18.289 82.63 18.955 81.481 18.95 79.892 C 18.943 79.322 18.857 78.723 18.698 78.108 Z  M 18.041 77.525 L 16.762 76.81 C 16.465 75.4 15.879 74.005 15.115 72.85 C 16.465 74.209 17.526 75.897 18.041 77.525 Z  M 11.635 70.626 C 11.168 71.115 10.849 72.163 10.697 73.425 L 9.213 72.596 C 9.614 71.229 10.515 70.488 11.635 70.626 Z  M 10.296 70.161 C 9.532 70.462 8.95 71.201 8.649 72.281 L 7.366 71.563 C 7.885 70.51 8.946 70.007 10.296 70.161 Z  M 7.021 73.234 C 7.021 72.77 7.084 72.357 7.199 71.993 L 8.545 72.746 C 8.475 73.138 8.434 73.564 8.434 74.023 C 8.434 74.483 8.471 74.949 8.545 75.418 L 7.199 74.666 C 7.08 74.175 7.021 73.697 7.021 73.234 Z  M 7.366 75.289 L 8.649 76.006 C 8.946 77.42 9.532 78.815 10.296 79.97 C 8.938 78.603 7.885 76.921 7.366 75.289 L 7.366 75.289 Z  M 11.635 81.001 C 10.515 79.884 9.614 78.136 9.213 76.321 L 10.7 77.152 C 10.849 78.586 11.164 79.988 11.635 81.001 Z  M 10.648 76.597 L 9.102 75.732 C 8.948 74.762 8.948 73.859 9.102 73.06 L 10.648 73.924 C 10.615 74.348 10.597 74.79 10.597 75.235 C 10.597 75.677 10.611 76.134 10.648 76.597 L 10.648 76.597 Z  M 14.714 75.666 C 14.614 74.698 14.439 73.766 14.206 72.971 C 14.158 72.807 14.002 72.645 13.857 72.61 C 13.713 72.575 13.635 72.681 13.683 72.845 C 13.902 73.586 14.065 74.451 14.161 75.353 L 11.253 73.729 C 11.509 71.634 12.188 70.698 12.707 70.989 C 12.919 71.107 13.167 71.475 13.39 72.006 C 13.46 72.173 13.627 72.316 13.764 72.325 C 13.898 72.333 13.954 72.205 13.879 72.032 C 13.85 71.959 13.816 71.891 13.783 71.819 C 14.899 72.935 15.797 74.677 16.198 76.488 L 14.714 75.659 L 14.714 75.666 L 14.714 75.666 Z  M 16.869 80.073 C 16.94 79.677 16.977 79.253 16.977 78.8 C 16.977 78.341 16.936 77.869 16.865 77.398 L 18.212 78.151 C 18.327 78.643 18.39 79.127 18.39 79.59 C 18.39 80.046 18.331 80.458 18.219 80.827 L 16.869 80.073 Z  M 15.805 81.895 L 17.099 82.181 C 17.207 82.205 17.281 82.148 17.285 82.044 C 17.288 81.936 17.218 81.798 17.114 81.697 L 13.197 77.978 C 13.093 77.881 12.974 77.836 12.896 77.867 C 12.818 77.898 12.793 77.996 12.837 78.12 L 14.443 82.75 C 14.486 82.873 14.587 82.994 14.699 83.056 L 14.707 83.06 C 14.822 83.121 14.922 83.106 14.959 83.024 L 15.419 82.048 L 16.765 84.083 C 16.821 84.167 16.891 84.231 16.962 84.271 C 17.032 84.31 17.103 84.325 17.158 84.303 C 17.266 84.26 17.266 84.094 17.158 83.932 L 15.805 81.895 L 15.805 81.895 Z  M 14.673 82.044 L 13.594 78.928 L 16.231 81.43 L 15.207 81.205 C 15.207 81.205 15.204 81.203 15.204 81.206 C 15.189 81.201 15.178 81.202 15.163 81.201 C 15.159 81.203 15.155 81.2 15.152 81.202 C 15.137 81.204 15.118 81.205 15.107 81.212 C 15.092 81.218 15.081 81.226 15.07 81.234 C 15.066 81.236 15.066 81.239 15.063 81.241 C 15.055 81.251 15.048 81.257 15.044 81.269 C 15.044 81.269 15.044 81.273 15.04 81.271 L 14.673 82.044 L 14.673 82.044 Z  M 68.096 80.27 L 68.096 80.239 C 68.096 80.224 68.096 80.224 68.08 80.2 L 68.08 80.169 C 68.08 80.154 68.064 80.145 68.064 80.129 C 68.064 80.129 68.064 80.114 68.048 80.105 L 62.069 67.354 C 62.053 67.33 62.037 67.29 62.021 67.266 L 62.005 67.258 C 61.989 67.233 61.973 67.209 61.957 67.201 C 61.957 67.201 61.941 67.192 61.941 67.177 C 61.925 67.152 61.908 67.144 61.892 67.135 L 61.876 67.126 C 61.844 67.078 61.828 67.069 61.796 67.052 C 61.764 67.034 61.748 67.026 61.716 67.024 L 61.7 67.015 C 61.683 67.006 61.667 67.013 61.651 67.004 C 61.651 67.004 61.635 66.996 61.635 67.011 C 61.619 67.018 61.603 67.009 61.587 67.016 L 61.571 67.007 C 61.555 67.014 61.539 67.02 61.523 67.042 L 55.544 73.327 C 55.544 73.327 55.544 73.343 55.528 73.334 C 55.528 73.349 55.512 73.341 55.512 73.356 L 55.512 73.387 C 55.512 73.402 55.512 73.402 55.496 73.409 L 55.496 73.532 C 55.496 73.548 55.496 73.548 55.512 73.572 L 55.512 73.587 C 55.528 73.627 55.544 73.651 55.56 73.675 L 55.576 73.699 L 55.625 73.772 C 55.625 73.772 55.641 73.78 55.641 73.796 L 61.635 80.406 L 61.651 80.414 C 61.667 80.438 61.683 80.447 61.7 80.456 L 61.716 80.465 C 61.748 80.482 61.764 80.506 61.796 80.523 C 61.828 80.541 61.844 80.55 61.876 80.552 L 61.892 80.56 C 61.908 80.569 61.925 80.562 61.941 80.571 L 61.957 80.58 L 67.935 80.476 C 67.951 80.485 67.951 80.469 67.967 80.478 L 67.984 80.471 L 68.016 80.458 L 68.032 80.451 C 68.032 80.436 68.048 80.444 68.048 80.429 C 68.048 80.414 68.064 80.422 68.064 80.407 C 68.064 80.392 68.064 80.392 68.08 80.385 C 68.08 80.369 68.08 80.369 68.096 80.363 L 68.096 80.27 L 68.096 80.27 Z  M 61.475 73.906 L 56.637 73.396 L 61.475 68.296 L 61.475 73.906 Z  M 61.475 74.584 L 61.475 79.517 L 56.525 74.059 L 61.475 74.584 Z  M 62.117 74.933 L 63.982 76.757 L 67.067 79.774 L 62.117 79.865 L 62.117 74.933 Z  M 62.117 74.255 L 62.117 68.644 L 66.955 78.989 L 62.117 74.255 Z  M 67.598 81.295 L 61.796 81.495 L 55.994 75.005 C 55.866 74.858 55.689 74.793 55.592 74.849 C 55.496 74.904 55.48 75.05 55.56 75.216 L 61.539 86.503 L 61.555 86.527 C 61.571 86.552 61.571 86.567 61.587 86.576 L 61.603 86.6 C 61.619 86.624 61.635 86.633 61.635 86.648 C 61.635 86.648 61.651 86.657 61.651 86.672 C 61.667 86.681 61.683 86.705 61.7 86.714 L 61.716 86.722 C 61.732 86.731 61.764 86.764 61.78 86.773 C 61.812 86.79 61.828 86.799 61.844 86.792 L 61.86 86.801 C 61.876 86.81 61.892 86.803 61.908 86.812 C 61.908 86.812 61.925 86.82 61.925 86.805 C 61.941 86.814 61.957 86.807 61.957 86.792 L 61.973 86.785 L 62.005 86.771 L 62.021 86.765 L 68 81.96 C 68.08 81.88 68.08 81.726 67.967 81.557 C 67.855 81.388 67.742 81.312 67.598 81.295 Z  M 61.475 81.844 L 61.475 85.328 L 56.975 76.831 L 61.475 81.844 L 61.475 81.844 Z  M 62.117 85.676 L 62.117 82.193 L 66.617 82.043 L 62.117 85.676 Z " fill-rule="evenodd" fill="rgb(255,255,255)"/></g></g></svg>